
<global>
amp_veltrack=0
ampeg_release=0.25
</global>

<group>
group_label=Group_0-45
lpc_hicc1=42
lpc_locc1=0

<region>
hikey=a#2
hivel=127
lokey=a2
loop_end=269587
loop_mode=loop_continuous
loop_start=87633
loop_xfade=22047
lovel=1
lpc=lAbOQXlGYsLUl1VC8d8UwpthzEHW/5rBL0EOQZQx0T8xv5rAEdWBPZpK1ECjtcXA7AzUPVjf/T8Vz/0/C78UwO4dnT7pw6I/1HfOPiQco7/hwqU/rszSvyKSuz/vi5C/
lpc_rms=-31.70
offset=2018
pitch_keycenter=a#2
sample=BassClarinet_trill_semitone_PP_A#2.opus
</region>

<region>
hikey=a#3
hivel=127
lokey=a3
loop_end=262721
loop_mode=loop_continuous
loop_start=85402
loop_xfade=21486
lovel=1
lpc=HkuHQd+gB8I568BB6CUYwcdYDEBY4UA/vwoSP7lpJcDDAHA/YsjyP+PaNb97+AbA+ukkQAfzob/b1v27xfSfvWNP5D8W7vy/h1aFPjKmiD9sBsy+5Borv0i29L7VKXY/
lpc_rms=-32.71
pitch_keycenter=a#3
sample=BassClarinet_trill_semitone_PP_A#3.opus
</region>

<region>
hikey=G5
hivel=127
lokey=a4
loop_end=265318
loop_mode=loop_continuous
loop_start=86246
loop_xfade=21698
lovel=1
lpc=kJk0QljLusIk4IxC1SMOwl0a2kHLdQ7BY/0lwR0KI0ENbujAOJK8QKXLBEBBt3TATRMJwH2NzT3wFiZBmI5zwc/wLkGpuK3AVDOdQPAG1MANMAhBctu5wK2ZMkB22yS+
lpc_rms=-20.21
offset=17372
pitch_keycenter=A#4
sample=BassClarinet_trill_semitone_PP_A#4.opus
</region>

<region>
hivel=127
key=c2
loop_end=271775
loop_mode=loop_continuous
loop_start=88345
loop_xfade=22226
lovel=1
lpc=zukUQh83pcImgYpCGyLBwVCvlcBVIRxA86AIQZGpNMG3uThAwqe+QIPiv8DEVJY/wbddP5aH9L9g0YdAVWqCvwL0nsAJBaVAJGYeQPLI9MA/hgFB+RuZwNPg0j/+oVO/
lpc_rms=-25.53
offset=1452
sample=BassClarinet_trill_semitone_PP_C2.opus
</region>

<region>
hikey=c3
hivel=127
lokey=b2
loop_end=272468
loop_mode=loop_continuous
loop_start=88570
loop_xfade=22283
lovel=1
lpc=j1kaQiPllMI63VBCww8AwsTSxUEehoTBdMwwQXQbpcA4tCq/wPeFQNDuRMCfbyk/wQ5IvrhPm7+vx5BA+wNKwHVqlT6Xc88/1uqtv9J7N0Dh8EzAwX9HP2ySLcBmDhxA
lpc_rms=-29.80
offset=4187
pitch_keycenter=c3
sample=BassClarinet_trill_semitone_PP_C3.opus
</region>

<region>
hikey=c4
hivel=127
lokey=b3
loop_end=266810
loop_mode=loop_continuous
loop_start=86731
loop_xfade=21820
lovel=1
lpc=T0HVQidZbcOwcUNDAP2cwvQgZ0EWGqVALXaGP37JqsHKVYdB8fRWPxWCgECmPvnAeCdvwBCw2j/zzfBA3w/iwKlDcUDzzwm/Rj8iPz8/BcGRTwFB9VnRQM5UZcFmYwtB
lpc_rms=-18.51
offset=5642
pitch_keycenter=c4
sample=BassClarinet_trill_semitone_PP_C4.opus
</region>

<region>
hikey=d2
hivel=127
lokey=c#2
loop_end=271035
loop_mode=loop_continuous
loop_start=88104
loop_xfade=22166
lovel=1
lpc=/zDSQS1iHsKkeY1Bj/fiwBD8gEAYrRnA/x4hP7Z4er/1kKK/7+VbQMwb4b8rDPq/wGClQIj7y8CjW6pA0fcYwDFRUEBNobDA4oHBQBOHR8CWmENAxXiAwPhQYUAkOfC/
lpc_rms=-25.38
offset=1453
pitch_keycenter=d2
sample=BassClarinet_trill_semitone_PP_D2.opus
</region>

<region>
hikey=d3
hivel=127
lokey=c#3
loop_end=268334
loop_mode=loop_continuous
loop_start=87226
loop_xfade=21945
lovel=1
lpc=WcmzQVhHMsLMrwBCpFGMwWk9LUGwxj/ArEbFv2It9rum+qg/Govivg/MrT/NjSPAyt/2P42avb34r8W/TD9cQLm4IcAmBqA+aKmrP+LHq79Tliu8M8YmP4SLt7/jl3A/
lpc_rms=-31.92
offset=4729
pitch_keycenter=d3
sample=BassClarinet_trill_semitone_PP_D3.opus
</region>

<region>
hikey=d4
hivel=127
lokey=c#4
loop_end=272060
loop_mode=loop_continuous
loop_start=88437
loop_xfade=22250
lovel=1
lpc=hiIUQtWcc8LWaR1CesDswZHThUH0YO3AglMsQTDHCcFUxDJAVqDSPxiefsDWf49AQr9rv8Cfjr80WbE/ZaKQv78kBD8W/4e/8vNAvzfL7j7EnEY/EML4Pd55nD/6IYK+
lpc_rms=-20.61
pitch_keycenter=d4
sample=BassClarinet_trill_semitone_PP_D4.opus
</region>

<region>
hikey=e2
hivel=127
lokey=d#2
loop_end=271066
loop_mode=loop_continuous
loop_start=88114
loop_xfade=22168
lovel=1
lpc=LEH0Qb0LcsKOMT1CPdTVwUYhY0HFQRfB22q4QC4bgsCE4s4/yKVAPzZD4T4IIR/AmS92QEQvX8BcKwxA70nhPzs9o7/oj5G/YvAiQBHBcr+odOU/+OxvwCCtMUAwkMa/
lpc_rms=-27.27
offset=1788
pitch_keycenter=e2
sample=BassClarinet_trill_semitone_PP_E2.opus
</region>

<region>
hikey=e3
hivel=127
lokey=d#3
loop_end=274051
loop_mode=loop_continuous
loop_start=89085
loop_xfade=22412
lovel=1
lpc=1i1gQokY3cIpdpNCGmEzwocP/0HD6ObAwKCev+9OrEDaNsvAaG8LQaOSnb+s9bXAMs4gP1k7KEDuyrfABu0SQWMA98AJDXtAXh/+vwKpBkAoJybA7UqqP7orScB0yEBA
lpc_rms=-23.63
offset=4646
pitch_keycenter=e3
sample=BassClarinet_trill_semitone_PP_E3.opus
</region>

<region>
hikey=e4
hivel=127
lokey=d#4
loop_end=268869
loop_mode=loop_continuous
loop_start=87400
loop_xfade=21989
lovel=1
lpc=N9mRQYP3wMFBZ2BBKw5ewa+O30CX98+/1XVdQMlLAMDZ9nW/qW/HPp6bf7462BG/3iaKQLXxp8Dvt39AUH9UwKzq0D/3omE+4W3Kv0Hx2D+V4dy/j4ZfP57IbbxxaM4/
lpc_rms=-22.73
offset=4167
pitch_keycenter=e4
sample=BassClarinet_trill_semitone_PP_E4.opus
</region>

<region>
hikey=f#2
hivel=127
lokey=f2
loop_end=270104
loop_mode=loop_continuous
loop_start=87802
loop_xfade=22090
lovel=1
lpc=SiRDQtyltMJeYz1Co/YPwC6jZcE5+wdBtUj6P+P5U8D1rbQ/hnUUP6mi/UAiWg/B3cOrQOUURsCAohBAZiYaQAt4ncBPNe4/Eue8PzJ9iMCeVrY/8s+bPwZAa8DJlzBA
lpc_rms=-24.64
offset=3027
pitch_keycenter=f#2
sample=BassClarinet_trill_semitone_PP_F#2.opus
</region>

<region>
hikey=f#3
hivel=127
lokey=f3
loop_end=268704
loop_mode=loop_continuous
loop_start=87347
loop_xfade=21975
lovel=1
lpc=LkWwQiACFMN736dCw2+KwoYeLUIei5vAYWB9QSu2qsGd8clB2SiBwYrTPkHKpQLBKuigwCrUFEA0Sr1A5iofwdl8nUGlZlDB6IG7P1HL6D+N8VbBENNbQejXScFPBxNB
lpc_rms=-16.32
offset=2087
pitch_keycenter=f#3
sample=BassClarinet_trill_semitone_PP_F#3.opus
</region>

<region>
hikey=f#4
hivel=127
lokey=f4
loop_end=262524
loop_mode=loop_continuous
loop_start=85338
loop_xfade=21470
lovel=1
lpc=b+G5QnSzfsMRGY9Dr8Ayw/cvj0KvfOjBo8QvQpcciMLwb2tCr2eewa4IXcEYoHNBoq0LwEgiHEDsxT7BwWycQeL3XsEX64zAa5ygQa1t2MFhNuNBSlGtwXTTrUBGHF1A
lpc_rms=-20.51
offset=15005
pitch_keycenter=f#4
sample=BassClarinet_trill_semitone_PP_F#4.opus
</region>

<region>
hikey=g#2
hivel=127
lokey=g2
loop_end=274582
loop_mode=loop_continuous
loop_start=89257
loop_xfade=22456
lovel=1
lpc=6qUpQpYep8KvH3pCL5wMwpKpikHV+g/BHetdQEaHIkAwjQfAOFwhP56DtUC3MAbBnDe3QOxlrcBTe0FAVLcwvvwqA0CWb7jAgc33QLh6A8DNuDTAemSJQK0O6r++SYO/
lpc_rms=-25.96
pitch_keycenter=g#2
sample=BassClarinet_trill_semitone_PP_G#2.opus
</region>

<region>
hikey=g#3
hivel=127
lokey=g3
loop_end=270692
loop_mode=loop_continuous
loop_start=87993
loop_xfade=22138
lovel=1
lpc=iZdYQmPotMI+fS9CCar2wSsL9UHUp13Bj7+GQI3bEcCuzNpAzYwdvycLAEE5mgLBaHgPwSwlREGvPt/At12MQNPUe0D2Yw3BMUYJQS6gU8DctHzAfhkfQIeaR8Gyxj5B
lpc_rms=-24.82
offset=2694
pitch_keycenter=g#3
sample=BassClarinet_trill_semitone_PP_G#3.opus
</region>

<region>
hikey=g#4
hivel=127
lokey=g4
loop_end=271282
loop_mode=loop_continuous
loop_start=88184
loop_xfade=22186
lovel=1
lpc=MvHjQRKETcJyiMZBA9Z6wLB4CkGVwfHAkRbAvyemrECTzKw+gnbAwDiDsEA03B6/ZdyXwIBwKkAx8htAcWPQvbJsYcBkXGBAa7pzv/5Y6750+TA/9sChP4hBkcATK1hA
lpc_rms=-24.26
offset=4611
pitch_keycenter=g#4
sample=BassClarinet_trill_semitone_PP_G#4.opus
</region>
</group>

<group>
group_label=Group_46-90
lpc_hicc1=84
lpc_locc1=43

<region>
hikey=a#2
hivel=127
lokey=a2
loop_end=272061
loop_mode=loop_continuous
loop_start=88438
loop_xfade=22250
lovel=1
lpc=fdy6QRwsi8JrirNCvkCLwo0DH0KMLaHBFsMlQUH8wsBDNXpAoaHov3wPMEAIjvPA3P0eQfhl6MA2p5BAOcMqwMe3yz+Zbx/Afd9iQLwrS8A2rlJAuj+dwGBnZEAGHfi+
lpc_rms=-21.66
pitch_keycenter=a#2
sample=Bass_trill_semitone_MF_A#2.opus
</region>

<region>
hikey=a#3
hivel=127
lokey=a3
loop_end=263652
loop_mode=loop_continuous
loop_start=85704
loop_xfade=21562
lovel=1
lpc=qv9nQU93F8KL+RpCNG+gwSSA1UDkaAXAP3LAP67LKMAmxPg/bfqKPkrKl7xlXi/AL8wRQJG4FT9RSWm/CeBJP/IvPr8AA0K854X0vjhI7j+iZ7i/pgJkPgU3Ir6/gcw9
lpc_rms=-23.07
offset=2123
pitch_keycenter=a#3
sample=Bass_trill_semitone_MF_A#3.opus
</region>

<region>
hikey=G5
hivel=127
lokey=a4
loop_end=279344
loop_mode=loop_continuous
loop_start=90805
loop_xfade=22845
lovel=1
lpc=IywAQoTwmMKlopBCM3shwnuB10HWxNLBlGe8QdU5ccFa0Z5A1/Vpv+QBsECIZhfBun54QNN8BMCN7CVB2v8dwcu5okBx06PA5jOdQCT228Dozy1BbcW6wLDDXMB6oIdA
lpc_rms=-16.57
offset=8810
pitch_keycenter=A#4
sample=Bass_trill_semitone_MF_A#4.opus
</region>

<region>
hivel=127
key=c2
loop_end=272061
loop_mode=loop_continuous
loop_start=88438
loop_xfade=22250
lovel=1
lpc=qJ/yQWt1qcKySrtCkSZQwqGmhEE4TabACGQKQMC3gD0feR/ACRiAQMMrb8Duz55A+7/0wO/mkEA+c31AkUmvwPZGDMCWf7dAGGrEv44b4b+Hbc8/pTypvv851L+GzKU/
lpc_rms=-22.33
offset=7554
sample=Bass_trill_semitone_MF_C2.opus
</region>

<region>
hikey=c3
hivel=127
lokey=b2
loop_end=271410
loop_mode=loop_continuous
loop_start=88226
loop_xfade=22196
lovel=1
lpc=nVvCQZiVi8LPi6VC6hhiwrp08EGCMpTBVNplQcoYK8E+CapAB0d7vsAmoT89EaTA9ctaQFJ16L+AjqdAguuawMYk7j3VYmo/GwyLP9t3HcBVFINAMsS1wFFed0CkUGK/
lpc_rms=-21.27
offset=1650
pitch_keycenter=c3
sample=Bass_trill_semitone_MF_C3.opus
</region>

<region>
hikey=c4
hivel=127
lokey=b3
loop_end=276351
loop_mode=loop_continuous
loop_start=89832
loop_xfade=22601
lovel=1
lpc=FGpbQt8+KMOWqF1DOsUowz2anEL4JFfBtbj5wGaVKUDM1N/ANzzuQe6pCMJD5QtBz5NKQadOgcGZds5A/OYmQe5jksEZmllB8lIXwRsQ1T83fCZBlvg4wbJLKkDOaOA/
lpc_rms=-15.38
offset=9616
pitch_keycenter=c4
sample=Bass_trill_semitone_MF_C4.opus
</region>

<region>
hikey=d2
hivel=127
lokey=c#2
loop_end=271223
loop_mode=loop_continuous
loop_start=88166
loop_xfade=22181
lovel=1
lpc=VvuaQblxQcKDkjJCnymMwUd8A0D/WVC+gFPYPekkjT+r9fa/JCFcvfK6j0DF6b7ADsqtQCjcA8FrEytBSwoBwVRbVUB9vPC/s+oHQGpgAsCQCxxAaKc4wFiIwD8F5EO8
lpc_rms=-20.55
offset=1623
pitch_keycenter=d2
sample=Bass_trill_semitone_MF_D2.opus
</region>

<region>
hikey=d3
hivel=127
lokey=c#3
loop_end=272364
loop_mode=loop_continuous
loop_start=88536
loop_xfade=22274
lovel=1
lpc=4iOpQbb1bMKVFIpCV91DwqWQ4UFoQlzBhhvPQFrfnsCmK19AiqPyPwdPucCAiAJAK6nGP+rUq7/VFuI/tcZGPeDVJ8AAXs0/o2l7P5/1ecA1js9AXqX3wLT3tkAhTeK/
lpc_rms=-21.14
offset=3430
pitch_keycenter=d3
sample=Bass_trill_semitone_MF_D3.opus
</region>

<region>
hikey=d4
hivel=127
lokey=c#4
loop_end=271421
loop_mode=loop_continuous
loop_start=88230
loop_xfade=22197
lovel=1
lpc=DZGcQW8DH8LxZf5BffCwwWdSjUHyDAPBjDc3QIdANMBLcY0/psS+P11vo7+29y0/xzkmv+UdqL+Szq4/3KT9PhKvTr+915q/06inP2ejID+J0EE+uEKTvyefE78A9r0/
lpc_rms=-16.73
offset=2511
pitch_keycenter=d4
sample=Bass_trill_semitone_MF_D4.opus
</region>

<region>
hikey=e2
hivel=127
lokey=d#2
loop_end=272300
loop_mode=loop_continuous
loop_start=88515
loop_xfade=22269
lovel=1
lpc=5NG0QSsBgMKskZZCNrZDwpitlkFQY5HAZuZoQBsKgcBmO3A8NANtQDODAsAYaSLAxnBIQPeg6L/QSyxAsE21v6y6JcBB+TlARvrqPq32U8CDFmxAgO4jwD6NKT98LOE+
lpc_rms=-20.61
offset=8577
pitch_keycenter=e2
sample=Bass_trill_semitone_MF_E2.opus
</region>

<region>
hikey=e3
hivel=127
lokey=d#3
loop_end=270929
loop_mode=loop_continuous
loop_start=88070
loop_xfade=22157
lovel=1
lpc=iuUEQpG/uMJ8utNCAb2ZwqpgS0I0IfrBI32HQVamMMHB8tFA20TLvSP0J8CNTiS/SjPSP9saZD8csvG+OQUuQNix3cDovZlABEqXvtOKJr/1MP294OIHP+CqFMCNXfQ/
lpc_rms=-19.40
offset=3834
pitch_keycenter=e3
sample=Bass_trill_semitone_MF_E3.opus
</region>

<region>
hikey=e4
hivel=127
lokey=d#4
loop_end=272543
loop_mode=loop_continuous
loop_start=88595
loop_xfade=22289
lovel=1
lpc=2yq2QU8tQMJGbh9CQXPIwSlplEH65jjBKL3LQJg/PcD1g6g+xG0PQBhNfsAaNvg/DNCkP6o1esAkZpFAqh3Ev+ZCfz8KhwfA5LpoPzh2Db81Y/s+CnbPvkmix7/BEiBA
lpc_rms=-15.00
offset=6053
pitch_keycenter=e4
sample=Bass_trill_semitone_MF_E4.opus
</region>

<region>
hikey=f#2
hivel=127
lokey=f2
loop_end=276031
loop_mode=loop_continuous
loop_start=89728
loop_xfade=22574
lovel=1
lpc=frHHQeWZjcIHOKNCZ3NCwvRbPEGmMJtAbmmEwApjwT9Sa8q/6qTiv5Ap0EDOAP7AIyC0QJg1iMAHz7lAzfh8wI84HL/aaC5AANIwwCYamT+EUd8/AtmdwJbZo0C3ueW/
lpc_rms=-17.57
offset=7008
pitch_keycenter=f#2
sample=Bass_trill_semitone_MF_F#2.opus
</region>

<region>
hikey=f#3
hivel=127
lokey=f3
loop_end=272503
loop_mode=loop_continuous
loop_start=88582
loop_xfade=22286
lovel=1
lpc=c5RyQkMyGsNobhFDg96nwtiMaEJyAt3BMwUzPwnLWsGhtgNCMpLiwY6fukGJpOHBFz5uQZXopz/PcCJAZegPwF208r9VsCrAvm6WP2oGkkAjfLTAdXcoQUlpacHuJOVA
lpc_rms=-11.28
offset=1836
pitch_keycenter=f#3
sample=Bass_trill_semitone_MF_F#3.opus
</region>

<region>
hikey=f#4
hivel=127
lokey=f4
loop_end=271346
loop_mode=loop_continuous
loop_start=88205
loop_xfade=22191
lovel=1
lpc=JdUdQsmV4sKFHgtDUXbGwvYeSUJG2PLBw6cWQmgZNcKodQxCjGVRwTqewsA6MAVB7f8Cv1h7Qb9f1vHA8zGJQQ3EfsGi+ndAS0epQKPX5cCrOzFBhzhewR1X6UCMEgO+
lpc_rms=-13.97
offset=3790
pitch_keycenter=f#4
sample=Bass_trill_semitone_MF_F#4.opus
</region>

<region>
hikey=g#2
hivel=127
lokey=g2
loop_end=274337
loop_mode=loop_continuous
loop_start=89178
loop_xfade=22436
lovel=1
lpc=P4rdQa8an8JeAb1CBvR9wgud8kGlxlHBSU2IQJqf2T5DXA2//YEBwI6xt0CAlQ3BhLfaQGvlRcCo3hJADgfvOxDXUcAuNLg/Ed0jQM9tYMBLlzVAfZYawI9Ilj6g42A/
lpc_rms=-20.26
offset=5035
pitch_keycenter=g#2
sample=Bass_trill_semitone_MF_G#2.opus
</region>

<region>
hikey=g#3
hivel=127
lokey=g3
loop_end=273398
loop_mode=loop_continuous
loop_start=88873
loop_xfade=22359
lovel=1
lpc=6G0aQuj6ysI7z8pCHi9wwvc6GkLy47zB24hHQcr6h8HGi39B0lMRwAmjKD51YmPAY+27wFLZFEHo4Oq/zjRYQEAKlsB8gF++4c2Yv3qv10BVarrAevihPzCStL/Yu64/
lpc_rms=-18.38
offset=1486
pitch_keycenter=g#3
sample=Bass_trill_semitone_MF_G#3.opus
</region>

<region>
hikey=g#4
hivel=127
lokey=g4
loop_end=273843
loop_mode=loop_continuous
loop_start=89017
loop_xfade=22395
lovel=1
lpc=/HbaQdwahsLHJXxC1Y4Bwq4olUE7x5TBxDiGQRxKD8Hv4fU/UxcGvzwidEAWworA3HlbwN5FDUEsc8zA/mxlQH0RKMB1sCdAnBUgwOHvab8yKLhA+55owBOo9b/jDRpA
lpc_rms=-19.21
offset=1618
pitch_keycenter=g#4
sample=Bass_trill_semitone_MF_G#4.opus
</region>
</group>

<group>
group_label=Group_91-127
lpc_hicc1=127
lpc_locc1=85

<region>
hikey=a#2
hivel=127
lokey=a2
loop_end=269995
loop_mode=loop_continuous
loop_start=87766
loop_xfade=22081
lovel=1
lpc=jMguQcjT3sF3lehBp3R0wTvNQEAy4y29GsecQDNvC8GOGXJA5cllQLysmMAL5jU+PzBRQBETo79vCQHAg3yJQAvvkMBnDcA/pY6RPunGe72xdh8/cZgpv7dg+L5xjSw/
lpc_rms=-15.45
offset=3086
pitch_keycenter=a#2
sample=Bass_trill_semitone_FF_A#2.opus
</region>

<region>
hikey=a#3
hivel=127
lokey=a3
loop_end=270465
loop_mode=loop_continuous
loop_start=87919
loop_xfade=22119
lovel=1
lpc=7MUdQeg/xsG3jM5BjK52wa/BzUBxb4C/sMqKPxNVh8CbSHhAZasVv08WA8BDr44/8p+7PxH1ur+FbR0/iKOgPjLj4r/oPMA/rgYhvZNeer978pY+zsblPz9iCcDAmyg/
lpc_rms=-17.97
offset=3168
pitch_keycenter=a#3
sample=Bass_trill_semitone_FF_A#3.opus
</region>

<region>
hikey=G5
hivel=127
lokey=a4
loop_end=275908
loop_mode=loop_continuous
loop_start=89688
loop_xfade=22564
lovel=1
lpc=WT6oQZRDO8LFzCpCEJXHwY7mU0FS0wvBeVxLQVDnZ8EvRx5B+bBqwN79pD8UfYLA2CwoQPduEb4vexA/XTAjQBs8r74+daXA//GoQIOsjMDOs45AaFAiwK6Tgb6jSsI/
lpc_rms=-14.10
offset=6713
pitch_keycenter=A#4
sample=Bass_trill_semitone_FF_A#4.opus
</region>

<region>
hivel=127
key=c2
loop_end=271256
loop_mode=loop_continuous
loop_start=88176
loop_xfade=22184
lovel=1
lpc=B3UiQR7nxMGKpMFBhBZKwVMhmkBvQXfAuxVqQEn4FT9kAqnAL3WbQIPsQMDolBZAImivvzk+4D2R6+U/iDjwvx01I78yNEw/6ImMP3QnGb+K+fC/u4QYQFfITb87AcO9
lpc_rms=-16.65
offset=4706
sample=Bass_trill_semitone_FF_C2.opus
</region>

<region>
hikey=c3
hivel=127
lokey=b2
loop_end=272974
loop_mode=loop_continuous
loop_start=88735
loop_xfade=22324
lovel=1
lpc=i4EvQehN5MEUfv1BsgyiwcTCD0F8t7PAVc4KQQtxF8F5JZRAGvGWPkZwEcDUsXK+bvZaQFbhBMDeq6G+V3ICQNYJR8B8RAVA5Dlov+yj5rx0KfU/s15UwCCBFkCsqDC/
lpc_rms=-16.45
offset=2774
pitch_keycenter=c3
sample=Bass_trill_semitone_FF_C3.opus
</region>

<region>
hikey=c4
hivel=127
lokey=b3
loop_end=271303
loop_mode=loop_continuous
loop_start=88192
loop_xfade=22188
lovel=1
lpc=fRTUQeT1iMJTEYtC1I0QwiLjU0FQXwTBF55JQVbej8HR+T9BE0S+vx00AsCO6H09cxBuPyErPz8SEI/A81vhQPzIlMD7fcU/HT5Hv/AcR8BVnelAO/SwwOmHaD+eEI0/
lpc_rms=-10.30
offset=3703
pitch_keycenter=c4
sample=Bass_trill_semitone_FF_C4.opus
</region>

<region>
hikey=d2
hivel=127
lokey=c#2
loop_end=274107
loop_mode=loop_continuous
loop_start=89103
loop_xfade=22417
lovel=1
lpc=9kopQYbww8F79bJBvLAqwbFxLEAsCbq/CuKLQDBxjb99Y8nA6AWkQF7ynr+IEbo+Jg7gvj8t4T9Dhbc+4ppqwMRLzz/+yCu+neCePz/8t79vljY/MRuHP79ND8BU4Iw/
lpc_rms=-15.96
offset=3504
pitch_keycenter=d2
sample=Bass_trill_semitone_FF_D2.opus
</region>

<region>
hikey=d3
hivel=127
lokey=c#3
loop_end=275148
loop_mode=loop_continuous
loop_start=89441
loop_xfade=22502
lovel=1
lpc=hOpAQSzo/cHeag1CuGG3wSp1LEFOObbAGFjhQHibAME2iopAJx6APunDEMCp6JE+MWwHQPlMOb+09fG/CISHQAOwkMB9LAlAlReFvvDVfb/YXCJAqVxEwJZKzz8jAo2+
lpc_rms=-17.17
offset=3073
pitch_keycenter=d3
sample=Bass_trill_semitone_FF_D3.opus
</region>

<region>
hikey=d4
hivel=127
lokey=c#4
loop_end=272053
loop_mode=loop_continuous
loop_start=88435
loop_xfade=22249
lovel=1
lpc=q1SZQesIMsJwJilCYi7LwcG5gkFRIlLBG69LQQSHT8E2JvRAVqXdv2jPn7/WN5g/5Itfv29END8nclw/jVjyvBdAJL/0qgfA4hlzQAlsm8Bo48tAGVprwJkJTL+BINI/
lpc_rms=-10.48
offset=2316
pitch_keycenter=d4
sample=Bass_trill_semitone_FF_D4.opus
</region>

<region>
hikey=e2
hivel=127
lokey=d#2
loop_end=271476
loop_mode=loop_continuous
loop_start=88248
loop_xfade=22202
lovel=1
lpc=OcwSQZBNrcHFU6lBWLc/wfQ2nECGizPAF9KBQOWLrb/WcoPABUtkQIiuPL9Wa6y+S0XtPnOANT/upuQ+dzENwN+owz20iT8/mgVQP+Uyar98lnC/VgQ8QNSFNcBwj4k/
lpc_rms=-15.01
offset=2398
pitch_keycenter=e2
sample=Bass_trill_semitone_FF_E2.opus
</region>

<region>
hikey=e3
hivel=127
lokey=d#3
loop_end=265212
loop_mode=loop_continuous
loop_start=86211
loop_xfade=21690
lovel=1
lpc=qYWVQVAESMJEoVFCnvjqwfkeZUExxS7BYFIPQff1ocA+pFW/bpPuQB9ZHsHfr6FAQCPNv6zfd0ADk5HAowpQQGw5TMANqFZAITc7wGmPJEAEc7e/dBk+v2uhVD+b45C8
lpc_rms=-15.81
offset=1287
pitch_keycenter=e3
sample=Bass_trill_semitone_FF_E3.opus
</region>

<region>
hikey=e4
hivel=127
lokey=d#4
loop_end=274584
loop_mode=loop_continuous
loop_start=89258
loop_xfade=22456
lovel=1
lpc=M313QdrSGcLZZBlCuPqswXZ8JUEgxMvA/iXPQLtO7MDFGqJAZePyvrDxcsDHqm9AjDaqv/A0Lz/O0lO/tjQfQJZeNcBK6+M+kZETvG14Vr0F+9c/8NScv0NBs7+nXtI/
lpc_rms=-10.93
offset=3278
pitch_keycenter=e4
sample=Bass_trill_semitone_FF_E4.opus
</region>

<region>
hikey=f#2
hivel=127
lokey=f2
loop_end=277191
loop_mode=loop_continuous
loop_start=90106
loop_xfade=22669
lovel=1
lpc=4BhAQZoM8cF/VAJCOT+uwUg7NUHYmOnA0DkNQeCm8sBwUP48pnWdQGxPhsAiyXM/36U8PzsApT/sGZ6/jM6qv2//BEC7yBfANq0fQOt/h8D1nOJAm2euwM9ztj/lAkg+
lpc_rms=-12.28
offset=6560
pitch_keycenter=f#2
sample=Bass_trill_semitone_FF_F#2.opus
</region>

<region>
hikey=f#3
hivel=127
lokey=f3
loop_end=272442
loop_mode=loop_continuous
loop_start=88562
loop_xfade=22281
lovel=1
lpc=JqwDQhrJrcIriK9Cu8dHwj9PEkKTRhPCJxjbQQ/DpcHvZVtBvMwuwD07ED8jLYzAXo9LP/cHWUDGjR7AneOeP5pOaD+w617AbSrOQGq4jcDYWqbABTnvQCZyzb89RoS+
lpc_rms=-8.78
offset=1364
pitch_keycenter=f#3
sample=Bass_trill_semitone_FF_F#3.opus
</region>

<region>
hikey=f#4
hivel=127
lokey=f4
loop_end=273961
loop_mode=loop_continuous
loop_start=89055
loop_xfade=22405
lovel=1
lpc=t/vzQdvakMJUeoRCnGMLwlO7f0HG3IzApeE9QJwfscB8hDQ+tm9GQFiGKcA5JA1AEqqPP5itfr+lrXPA1B3HQGkNusD4ChlAPHpKQGE3o8BwnKFAQvBzwAjKxb/cQFBA
lpc_rms=-12.39
offset=8970
pitch_keycenter=f#4
sample=Bass_trill_semitone_FF_F#4.opus
</region>

<region>
hikey=g#2
hivel=127
lokey=g2
loop_end=279046
loop_mode=loop_continuous
loop_start=90709
loop_xfade=22821
lovel=1
lpc=HdsaQePMv8GA/8lBwvtiwep7OUBd3aI+Q15HQAHyU8AUmui/S2djQKrorb6hSlvAx7NpQHUSiL7drEO/C3mAv3Lb4j/BrgbAVtH3P2NXDsAM3/M/c8wQP3SlBMBoSIk/
lpc_rms=-13.74
offset=6673
pitch_keycenter=g#2
sample=Bass_trill_semitone_FF_G#2.opus
</region>

<region>
hikey=g#3
hivel=127
lokey=g3
loop_end=272315
loop_mode=loop_continuous
loop_start=88520
loop_xfade=22270
lovel=1
lpc=DZnVQSscjsI3VZJC5OsowqKirUFp4AbBQ/+qv3qWgL4eVjJATAODQBJAK8HErbRA2smpv4whwkDOQ+7AjGGAQMsIC78vLFDAEqfnQD7l58C8iC5Az7Q3PlyL+b55rDw+
lpc_rms=-13.88
offset=931
pitch_keycenter=g#3
sample=Bass_trill_semitone_FF_G#3.opus
</region>

<region>
hikey=g#4
hivel=127
lokey=g4
loop_end=272910
loop_mode=loop_continuous
loop_start=88714
loop_xfade=22319
lovel=1
lpc=6eurQfhbUsLw1DtCfo+WwcSu/ECH7CzBrJU/QU0q2MCJ4aM/VJbkPrGMiT8DBp/AqlTePwp7nEBbcH3AivaVP/ArPL9BSrg/pfryv2QFTz72LiRAPQvuvxBpj7+888g/
lpc_rms=-15.65
offset=4602
pitch_keycenter=g#4
sample=Bass_trill_semitone_FF_G#4.opus
</region>
</group>